<svg version="1.1" id="Layer_1" xmlns="http://www.w3.org/2000/svg" x="0" y="0" viewBox="0 0 256 256" xml:space="preserve"><style>.st0{fill:#fff}.st1{fill:none;stroke:#606161;stroke-width:3.5;stroke-linecap:round;stroke-linejoin:round;stroke-miterlimit:10}</style><path class="st1" d="M204.14 225.87H31.6c-6.6 0-12-5.4-12-12V23.92c0-6.6 5.4-12 12-12h172.54c6.6 0 12 5.4 12 12v189.95c0 6.6-5.4 12-12 12z"/><path class="st1" d="M54.2 41.97h61.38v61.38H54.2zM127.81 53.73h56.16M127.81 66.35h28.08M127.81 78.97h56.16M127.81 91.59h28.08M54.2 132.63h61.38v61.38H54.2zM127.81 144.39h56.16M127.81 157.01h28.08M127.81 169.64h56.16M127.81 182.26h28.08"/><circle cx="202.51" cy="206.31" r="41.09" fill="#f05b5f"/><g><path class="st0" d="M209.38 215.14c-8.66 0-15.71-7.05-15.71-15.71s7.05-15.71 15.71-15.71 15.71 7.05 15.71 15.71c0 8.67-7.05 15.71-15.71 15.71zm0-27.49c-6.5 0-11.78 5.28-11.78 11.78 0 6.5 5.28 11.78 11.78 11.78 6.5 0 11.78-5.28 11.78-11.78 0-6.49-5.28-11.78-11.78-11.78z"/><path class="st0" d="M181.89 228.89c-.5 0-1.01-.19-1.39-.58-.77-.77-.77-2.01 0-2.78l17.67-17.67c.77-.77 2.01-.77 2.78 0s.77 2.01 0 2.78l-17.67 17.67c-.38.38-.88.58-1.39.58z"/></g><g><path class="st1" d="M19.47 72.48s-8.41-2.57-7.72-9.5c0 0 0-10.29 19.39-7.72M19.47 127.71s-8.41-2.57-7.72-9.5c0 0 0-10.29 19.39-7.72M19.47 182.93s-8.41-2.57-7.72-9.5c0 0 0-10.29 19.39-7.72"/></g></svg>
