<svg version="1.1" id="Layer_1" xmlns="http://www.w3.org/2000/svg" xmlns:xlink="http://www.w3.org/1999/xlink" x="0" y="0" viewBox="0 0 256 256" xml:space="preserve"><style>.st9{fill:#fff;stroke:#606161;stroke-width:3.5;stroke-linecap:round;stroke-linejoin:round;stroke-miterlimit:10}</style><path class="st9" d="M190.16 161.88H73.71v-46.31c0-1.28 1.04-2.32 2.32-2.32h111.82c1.28 0 2.32 1.04 2.32 2.32v46.31z"/><path class="st9" d="M200.37 135.3c-5.67 0-10.27 4.6-10.27 10.27v16.32H73.71v-16.32c0-5.67-4.6-10.27-10.27-10.27s-10.27 4.6-10.27 10.27v26.45c0 5.6 4.54 10.13 10.13 10.13H200.49c5.6 0 10.13-4.54 10.13-10.13V145.57c.02-5.68-4.58-10.27-10.25-10.27zM73.71 182.14v10.96M189.58 182.14v10.96M131.26 113.25v48.63"/><g><defs><circle id="SVGID_5_" cx="209.09" cy="104.99" r="41.09"/></defs><use xlink:href="#SVGID_5_" overflow="visible" fill="#f05b5f"/><clipPath id="SVGID_2_"><use xlink:href="#SVGID_5_" overflow="visible"/></clipPath></g><g><path d="M199.24 87.548c-7.07 0-11.41 6.18-11.41 11.26 0 10.97 12.47 21.15 21.27 27.63 8.8-6.48 21.27-16.66 21.27-27.63 0-5.07-4.34-11.26-11.41-11.26-3.95 0-7.32 3.15-9.86 6.14-2.54-2.99-5.91-6.14-9.86-6.14z" fill="#f05b5f" stroke="#fff" stroke-width="3.5" stroke-linecap="round" stroke-linejoin="round" stroke-miterlimit="10"/></g><g><path class="st9" d="M30.96 186.62l1.01-90.46M38.37 186.62H23.55M6.82 96.16h49.29L47.28 64.9h-32z"/></g></svg>
