<svg version="1.1" id="Layer_1" xmlns="http://www.w3.org/2000/svg" x="0" y="0" viewBox="0 0 256 256" xml:space="preserve"><style>.st1{fill:none;stroke:#606161;stroke-width:3.5;stroke-linecap:round;stroke-linejoin:round;stroke-miterlimit:10}</style><path class="st1" d="M113.12 209.99l19.35 10.46 6.01-3.54 9.91-5.82 14.98 9.36h.77l15.92-9.36 14.98 9.36h.77l15.92-9.36 10 6.25V14.49H69.13v147.38M91.63 50.02h102.13M91.63 72.97h51.06M91.63 95.92h102.13M91.63 118.87h51.06"/><circle cx="72.8" cy="202.99" r="41.09" fill="#f05b5f"/><path d="M88.8 183.74H74.54c2.2 1.75 4.66 4.26 5.12 7.76h9.14v3.8h-9.07c-.76 7.76-7.78 12.7-17.51 13 5.93 6.16 12.39 13.92 18.78 21.75h-5.58c-5.93-7.15-11.48-13.76-18.63-21.37v-4.71h4.18c8.21 0 13.44-3.42 13.97-8.67H56.79v-3.8h17.92c-1.06-4.41-5.91-7.47-12.52-7.47h-5.4v-4.09H88.8v3.8z" fill="#fff"/></svg>
